<?xml version="1.0" encoding="iso-8859-1"?>
<!-- Uploaded to: SVG Repo, www.svgrepo.com, Generator: SVG Repo Mixer Tools -->
<svg fill="#000000" height="20px" width="20px" version="1.1" id="Layer_1" xmlns="http://www.w3.org/2000/svg" xmlns:xlink="http://www.w3.org/1999/xlink"
	 viewBox="0 0 512 512" xml:space="preserve">
<g>
	<g>
		<path d="M139.497,84.828c-11.584,0-22.846,2.643-33.471,7.858c-26.787,13.148-45.144,41.241-46.768,71.571
			c-1.228,23.018,4.534,41.91,19.889,65.216c4.311,6.542,19.009,24.123,29.125,34.836c2.99,3.166,7.018,4.765,11.055,4.765
			c3.744,0,7.495-1.374,10.432-4.148c6.104-5.764,6.379-15.384,0.617-21.488c-10.087-10.684-23.049-26.451-25.843-30.692
			c-11.747-17.828-15.79-30.531-14.917-46.866c1.044-19.511,12.742-37.528,29.804-45.903c6.421-3.151,13.174-4.749,20.076-4.749
			c8.395,0,15.2-6.807,15.2-15.2S147.892,84.828,139.497,84.828z"/>
	</g>
</g>
<g>
	<g>
		<path d="M151.167,268.264h-0.015c-8.395,0-15.193,6.807-15.193,15.2s6.813,15.2,15.208,15.2s15.2-6.807,15.2-15.2
			S159.562,268.264,151.167,268.264z"/>
	</g>
</g>
<g>
	<g>
		<path d="M457.601,292.426c10.783-11.763,19.041-21.972,24.62-30.452c15.044-22.888,31.998-55.036,29.54-100.877
			c-1.929-36.061-17.197-69.922-42.993-95.349c-26.182-25.805-60.367-40.016-96.261-40.016c-52.688,0-95.814,40.323-116.232,63.477
			c-19.839-23.294-61.998-63.477-116.778-63.477c-35.89,0-70.076,14.212-96.255,40.017C17.446,91.175,2.178,125.037,0.247,161.099
			c-1.912,35.851,7.203,66.967,29.557,100.889c20.052,30.426,72.27,78.539,110.894,110.496
			c23.964,19.829,46.567,36.866,65.363,49.271c30.497,20.128,42.834,22.709,50.172,22.709c6.335,0,16.263-1.888,37.594-14.622
			c18.588,33.609,54.397,56.426,95.444,56.426c60.104,0,109.003-48.899,109.003-109.003
			C498.277,343.017,482.384,312.423,457.601,292.426z M280.432,383.086c0.024,0.467,0.076,0.929,0.106,1.394
			c0.097,1.482,0.207,2.961,0.363,4.426c0.052,0.488,0.128,0.973,0.185,1.459c0.175,1.453,0.365,2.9,0.597,4.335
			c0.076,0.468,0.169,0.932,0.251,1.398c0.255,1.458,0.531,2.906,0.842,4.343c0.034,0.16,0.056,0.318,0.091,0.474
			c-19,11.867-25.691,13.033-26.628,13.142c-7.922-0.793-41.185-19.345-97.585-66.172c-47.335-39.301-88.916-80.544-103.47-102.625
			c-18.546-28.145-26.126-53.602-24.583-82.541c3.145-58.773,51.995-106.588,108.892-106.588
			c59.071,0,103.427,65.348,103.856,65.988c2.773,4.177,7.431,6.709,12.444,6.784c4.966,0.065,9.746-2.335,12.64-6.427
			c0.47-0.664,47.599-66.345,104.07-66.345c56.903,0,105.753,47.815,108.9,106.589c1.569,29.26-5.785,53.948-24.586,82.552
			c-5.319,8.088-14.2,18.78-25.927,31.239c-0.851-0.35-1.718-0.661-2.578-0.99c-0.664-0.255-1.322-0.523-1.993-0.765
			c-0.725-0.261-1.459-0.496-2.189-0.742c-1.014-0.344-2.026-0.69-3.052-1.005c-0.439-0.134-0.885-0.248-1.325-0.377
			c-1.304-0.38-2.613-0.752-3.937-1.085c-0.226-0.056-0.456-0.102-0.682-0.158c-1.514-0.369-3.037-0.719-4.575-1.024
			c-0.126-0.026-0.252-0.043-0.378-0.068c-1.616-0.315-3.239-0.602-4.879-0.845c-0.181-0.027-0.365-0.044-0.546-0.07
			c-1.567-0.223-3.139-0.427-4.726-0.584c-0.517-0.052-1.037-0.074-1.553-0.119c-1.254-0.105-2.508-0.217-3.774-0.28
			c-1.807-0.091-3.619-0.138-5.431-0.138c-60.104,0-109.001,48.897-109.001,109.001C280.272,379.217,280.33,381.158,280.432,383.086
			z M389.274,455.868c-34.728,0-64.246-22.647-74.616-53.941c-0.229-0.693-0.454-1.386-0.664-2.084
			c-0.111-0.366-0.21-0.739-0.316-1.108c-0.682-2.4-1.246-4.826-1.696-7.272c-0.1-0.549-0.207-1.097-0.295-1.649
			c-0.093-0.576-0.172-1.154-0.251-1.733c-0.09-0.652-0.176-1.304-0.251-1.961c-0.059-0.524-0.114-1.047-0.163-1.572
			c-0.071-0.772-0.129-1.547-0.178-2.324c-0.027-0.429-0.059-0.856-0.079-1.286c-0.056-1.219-0.093-2.44-0.093-3.672
			c0-43.342,35.26-78.601,78.601-78.601c1.532,0,3.061,0.055,4.586,0.144c0.401,0.024,0.798,0.062,1.198,0.093
			c1.158,0.085,2.315,0.19,3.467,0.327c0.407,0.047,0.812,0.1,1.218,0.157c1.202,0.16,2.402,0.35,3.593,0.565
			c0.312,0.056,0.625,0.108,0.935,0.167c2.988,0.581,5.939,1.333,8.836,2.251c0.455,0.146,0.903,0.306,1.353,0.459
			c0.906,0.306,1.806,0.626,2.7,0.965c0.643,0.245,1.283,0.497,1.918,0.758c0.648,0.264,1.287,0.546,1.927,0.828
			c0.752,0.334,1.509,0.663,2.25,1.018c0.234,0.112,0.461,0.237,0.695,0.351c25.997,12.835,43.928,39.616,43.928,70.518
			C467.877,420.607,432.614,455.868,389.274,455.868z"/>
	</g>
</g>
<g>
	<g>
		<path d="M410.771,377.267l17.62-17.621c5.936-5.936,5.936-15.56,0-21.496c-5.937-5.934-15.559-5.934-21.497,0l-17.62,17.621
			l-17.62-17.621c-5.937-5.934-15.559-5.934-21.497,0c-5.936,5.936-5.936,15.56,0,21.497l17.62,17.621l-17.62,17.62
			c-5.936,5.936-5.936,15.56,0,21.497c2.969,2.967,6.858,4.452,10.748,4.452s7.779-1.485,10.748-4.452l17.62-17.62l17.62,17.62
			c2.969,2.967,6.858,4.452,10.748,4.452c3.89,0,7.779-1.485,10.748-4.452c5.936-5.936,5.936-15.56,0-21.497L410.771,377.267z"/>
	</g>
</g>
</svg>